<svg viewBox="0 0 280 64" xmlns="http://www.w3.org/2000/svg" role="img" aria-label="Lakshana wordmark">
  <g transform="translate(8.10,64.67) scale(0.03448,-0.03448)" fill="#cf6d35">
    <path d="M1418 1246V1104H1115V-29H1073L960 99V762Q856 738 639 455L523 570Q551 612 615 686Q516 780 419 780Q354 780 297.5 727.0Q241 674 241 602Q241 524 292.5 444.5Q344 365 570 144L536 113L252 397Q163 485 131.0 548.0Q99 611 99 665Q99 762 162.5 826.0Q226 890 319 890Q468 890 646 720Q799 869 960 869V1104H-3V1246Z"/>
  </g>
  <text x="78" y="44" font-family="Newsreader, Georgia, serif" font-weight="600" font-size="34" fill="#1a1611" letter-spacing="-0.5">Lakshana</text>
</svg>
